<svg width="974" height="707" viewBox="0 0 974 707" fill="none" xmlns="http://www.w3.org/2000/svg">
<path fill-rule="evenodd" clip-rule="evenodd" d="M839.776 583.501C866.776 646.501 911.058 695.001 951.823 695.001V703.001H842.157C768.054 703.001 731.002 703.001 702.948 683.125C674.895 663.25 662.608 628.295 638.036 558.386L638.035 558.385C594.639 434.922 540 279.573 540 279.573L540.002 276.929L634.786 0.892578L642.344 0.920684L839.776 583.501ZM973.823 12.0007C916.385 12.0006 869.823 58.5631 869.823 116.001H861.823C861.823 58.5631 815.261 12.0006 757.823 12.0006V4.00063L973.823 4.00065V12.0007ZM134.047 123.5C107.047 60.5 62.7646 12 22.0001 12V4.00003L131.666 4.00002C205.77 4.00004 242.821 4.00004 270.875 23.8755C298.928 43.751 311.215 78.7058 335.788 148.615C379.185 272.079 433.823 427.427 433.823 427.427L433.821 430.072L339.037 706.108L331.479 706.08L134.047 123.5ZM0 695C57.4376 695 104 648.438 104 591H112C112 648.438 158.562 695 216 695V703L0 703V695Z" fill="white"/>
</svg>
